<svg width="22" height="25" viewBox="0 0 22 25" fill="none" xmlns="http://www.w3.org/2000/svg">
<path d="M10.5263 17.1053C4.71053 17.1053 0 19.4605 0 22.3684V25H21.0526V22.3684C21.0526 19.4605 16.3421 17.1053 10.5263 17.1053ZM5.26316 9.21053C5.26316 10.6064 5.81767 11.9451 6.8047 12.9321C7.79174 13.9192 9.13044 14.4737 10.5263 14.4737C11.9222 14.4737 13.2609 13.9192 14.2479 12.9321C15.235 11.9451 15.7895 10.6064 15.7895 9.21053H5.26316ZM9.86842 0C9.47368 0 9.21053 0.276316 9.21053 0.657895V4.60526H7.89474V1.31579C7.89474 1.31579 4.93421 2.44737 4.93421 6.25C4.93421 6.25 3.94737 6.43421 3.94737 7.89474H17.1053C17.0395 6.43421 16.1184 6.25 16.1184 6.25C16.1184 2.44737 13.1579 1.31579 13.1579 1.31579V4.60526H11.8421V0.657895C11.8421 0.276316 11.5921 0 11.1842 0H9.86842Z" fill="#00B0C7"/>
</svg>
