<svg width="25" height="26" viewBox="0 0 25 26" fill="none" xmlns="http://www.w3.org/2000/svg">
<path d="M17.5781 7.53125C16.545 7.53006 15.5301 7.80382 14.6377 8.32444C13.7452 8.84506 13.0074 9.59378 12.5 10.4937V6.75H10.9375V13H17.1875V11.4375H13.763C14.1109 10.7587 14.6334 10.1849 15.2767 9.77509C15.92 9.36529 16.6609 9.13432 17.4232 9.10594C18.1854 9.07757 18.9414 9.25281 19.6134 9.61364C20.2854 9.97448 20.8491 10.5079 21.2465 11.1589C21.6439 11.8099 21.8606 12.5551 21.8744 13.3177C21.8882 14.0804 21.6985 14.8329 21.3248 15.4978C20.9512 16.1628 20.4071 16.7162 19.7486 17.101C19.0901 17.4859 18.3409 17.6883 17.5781 17.6875H17.1875V19.25H17.5781C19.1321 19.25 20.6225 18.6327 21.7213 17.5338C22.8202 16.435 23.4375 14.9446 23.4375 13.3906C23.4375 11.8366 22.8202 10.3463 21.7213 9.24742C20.6225 8.14858 19.1321 7.53125 17.5781 7.53125Z" fill="#00B0C7"/>
<path d="M20.3125 5.1875H3.125V7.66484L8.91734 13.4573L9.375 13.9148V20.8125H12.5V19.25H14.0625V20.8125C14.0625 21.2269 13.8979 21.6243 13.6049 21.9174C13.3118 22.2104 12.9144 22.375 12.5 22.375H9.375C8.9606 22.375 8.56317 22.2104 8.27015 21.9174C7.97712 21.6243 7.8125 21.2269 7.8125 20.8125V14.5625L2.02016 8.76977C1.87505 8.62467 1.75996 8.45241 1.68143 8.26282C1.60291 8.07324 1.56249 7.87005 1.5625 7.66484V5.1875C1.5625 4.7731 1.72712 4.37567 2.02015 4.08265C2.31317 3.78962 2.7106 3.625 3.125 3.625H20.3125V5.1875Z" fill="#00B0C7"/>
</svg>
