<svg width="25" height="26" viewBox="0 0 25 26" fill="none" xmlns="http://www.w3.org/2000/svg">
<path d="M12.5 4.70331C11.713 4.70331 10.9437 4.93668 10.2893 5.37392C9.63495 5.81116 9.12493 6.43262 8.82376 7.15971C8.52258 7.88681 8.44378 8.68689 8.59732 9.45877C8.75086 10.2307 9.12984 10.9397 9.68633 11.4962C10.2428 12.0527 10.9518 12.4316 11.7237 12.5852C12.4956 12.7387 13.2957 12.6599 14.0228 12.3587C14.7499 12.0576 15.3713 11.5476 15.8086 10.8932C16.2458 10.2388 16.4792 9.46948 16.4792 8.68247C16.4792 7.62713 16.06 6.61502 15.3137 5.86878C14.5675 5.12254 13.5554 4.70331 12.5 4.70331ZM12.5 11.2728C11.9877 11.2728 11.4869 11.1208 11.0609 10.8362C10.635 10.5516 10.303 10.147 10.1069 9.67373C9.91087 9.20042 9.85957 8.6796 9.95952 8.17714C10.0595 7.67467 10.3062 7.21313 10.6684 6.85087C11.0307 6.48861 11.4922 6.24191 11.9947 6.14197C12.4972 6.04202 13.018 6.09332 13.4913 6.28937C13.9646 6.48542 14.3691 6.81742 14.6538 7.24339C14.9384 7.66936 15.0903 8.17017 15.0903 8.68247C15.0885 9.36826 14.8148 10.0253 14.3292 10.5096C13.8436 10.9939 13.1858 11.2658 12.5 11.2658V11.2728Z" fill="#00B0C7"/>
<path d="M12.5 1.42554C10.3369 1.42734 8.26247 2.28504 6.72971 3.8113C5.19695 5.33755 4.33043 7.40834 4.31943 9.57137C4.31943 12.8144 6.13887 15.5297 7.47221 17.5089L7.71526 17.87C9.04184 19.7926 10.465 21.6469 11.9792 23.4255L12.5069 24.0436L13.0347 23.4255C14.5487 21.6467 15.9718 19.7925 17.2986 17.87L17.5417 17.5019C18.868 15.5228 20.6875 12.8144 20.6875 9.57137C20.6765 7.40714 19.809 5.3353 18.2747 3.80885C16.7405 2.2824 14.6642 1.42551 12.5 1.42554ZM16.3819 16.7033L16.1319 17.0714C14.9375 18.863 13.3542 20.87 12.5 21.863C11.6805 20.87 10.0625 18.863 8.86804 17.0714L8.62498 16.7033C7.39582 14.87 5.70832 12.363 5.70832 9.54359C5.70832 8.6517 5.88399 7.76854 6.2253 6.94453C6.56661 6.12053 7.06688 5.37182 7.69755 4.74116C8.32821 4.11049 9.07692 3.61022 9.90092 3.26891C10.7249 2.9276 11.6081 2.75193 12.5 2.75193C13.3919 2.75193 14.275 2.9276 15.099 3.26891C15.923 3.61022 16.6718 4.11049 17.3024 4.74116C17.9331 5.37182 18.4334 6.12053 18.7747 6.94453C19.116 7.76854 19.2917 8.6517 19.2917 9.54359C19.2917 12.3908 17.6111 14.8978 16.3819 16.7033Z" fill="#00B0C7"/>
</svg>
