<svg width="24" height="26" viewBox="0 0 24 26" fill="none" xmlns="http://www.w3.org/2000/svg">
<path d="M20.4714 4.51852C18.0239 2.07103 14.5554 0.659585 10.7415 1.04998C5.23084 1.60555 0.696207 6.08012 0.0805781 11.5907C-0.745265 18.8732 4.88548 25.0145 11.9877 25.0145C16.7776 25.0145 20.8918 22.2066 22.8138 18.1675C23.2943 17.1614 22.5735 16.0053 21.4624 16.0053C20.9068 16.0053 20.3813 16.3056 20.1411 16.8011C18.4443 20.4498 14.3752 22.7622 9.93063 21.7711C6.59723 21.0354 3.90949 18.3176 3.20377 14.9842C1.94248 9.15826 6.372 3.99299 11.9877 3.99299C14.4803 3.99299 16.7025 5.02905 18.3242 6.66572L16.0569 8.93303C15.1109 9.879 15.7716 11.5007 17.108 11.5007H22.4985C23.3243 11.5007 24 10.825 24 9.99912V4.60862C24 3.27225 22.3783 2.59656 21.4324 3.54253L20.4714 4.51852Z" fill="#00B0C7"/>
</svg>
