<svg width="25" height="26" viewBox="0 0 25 26" fill="none" xmlns="http://www.w3.org/2000/svg">
<path d="M12.5 6.28665C11.7274 6.28665 10.9722 6.51575 10.3298 6.94497C9.68743 7.3742 9.18675 7.98427 8.8911 8.69805C8.59544 9.41182 8.51809 10.1972 8.66881 10.955C8.81953 11.7127 9.19157 12.4087 9.73787 12.955C10.2842 13.5013 10.9802 13.8734 11.7379 14.0241C12.4957 14.1748 13.2811 14.0975 13.9949 13.8018C14.7086 13.5062 15.3187 13.0055 15.7479 12.3631C16.1772 11.7207 16.4063 10.9655 16.4063 10.1929C16.4063 9.1569 15.9947 8.16333 15.2621 7.43077C14.5296 6.6982 13.536 6.28665 12.5 6.28665ZM12.5 12.5367C12.0365 12.5367 11.5833 12.3992 11.1979 12.1417C10.8125 11.8841 10.5121 11.5181 10.3347 11.0898C10.1573 10.6616 10.1109 10.1903 10.2013 9.73566C10.2917 9.28102 10.5149 8.8634 10.8427 8.53562C11.1705 8.20784 11.5881 7.98462 12.0428 7.89419C12.4974 7.80375 12.9687 7.85017 13.3969 8.02756C13.8252 8.20495 14.1912 8.50536 14.4488 8.89079C14.7063 9.27621 14.8438 9.72935 14.8438 10.1929C14.8431 10.8143 14.5959 11.41 14.1565 11.8494C13.7171 12.2888 13.1214 12.536 12.5 12.5367Z" fill="#00B0C7"/>
<path d="M12.5 1.59915C10.3368 1.59915 8.22212 2.24063 6.42346 3.44245C4.62479 4.64428 3.22291 6.35249 2.39507 8.35105C1.56724 10.3496 1.35064 12.5488 1.77267 14.6705C2.19469 16.7921 3.23639 18.741 4.76603 20.2706C6.29566 21.8003 8.24454 22.842 10.3662 23.264C12.4879 23.686 14.687 23.4694 16.6856 22.6416C18.6842 21.8138 20.3924 20.4119 21.5942 18.6132C22.796 16.8145 23.4375 14.6999 23.4375 12.5367C23.4342 9.63685 22.2809 6.85675 20.2304 4.80628C18.1799 2.75581 15.3998 1.60242 12.5 1.59915ZM7.81251 20.6433V19.5679C7.81319 18.9465 8.06034 18.3508 8.49973 17.9114C8.93912 17.472 9.53487 17.2248 10.1563 17.2242H14.8438C15.4652 17.2248 16.0609 17.472 16.5003 17.9114C16.9397 18.3508 17.1868 18.9465 17.1875 19.5679V20.6433C15.765 21.4739 14.1473 21.9117 12.5 21.9117C10.8527 21.9117 9.23503 21.4739 7.81251 20.6433ZM18.7442 19.5099C18.7286 18.4851 18.3111 17.5075 17.5815 16.7876C16.8519 16.0678 15.8687 15.6634 14.8438 15.6617H10.1563C9.13133 15.6634 8.14813 16.0678 7.41854 16.7876C6.68895 17.5075 6.2714 18.4851 6.25587 19.5099C4.83912 18.2449 3.84003 16.5794 3.39089 14.7339C2.94175 12.8884 3.06375 10.95 3.74074 9.17545C4.41772 7.40085 5.61776 5.87374 7.18194 4.79631C8.74612 3.71889 10.6007 3.14198 12.5 3.14198C14.3994 3.14198 16.2539 3.71889 17.8181 4.79631C19.3823 5.87374 20.5823 7.40085 21.2593 9.17545C21.9363 10.95 22.0583 12.8884 21.6091 14.7339C21.16 16.5794 20.1609 18.2449 18.7442 19.5099Z" fill="#00B0C7"/>
</svg>
